<mxfile host="app.diagrams.net" modified="2024-04-19T08:59:13.803Z" agent="Mozilla/5.0 (Windows NT 6.1; Win64; x64; rv:109.0) Gecko/20100101 Firefox/115.0" etag="XITD4FGDsEBMVJixODKh" version="24.2.5" type="github">
  <diagram name="Halaman-1" id="ZbF-5rv6A30Ld1g-pkdx">
    <mxGraphModel dx="880" dy="470" grid="1" gridSize="10" guides="1" tooltips="1" connect="1" arrows="1" fold="1" page="1" pageScale="1" pageWidth="827" pageHeight="1169" math="0" shadow="0">
      <root>
        <mxCell id="0" />
        <mxCell id="1" parent="0" />
      </root>
    </mxGraphModel>
  </diagram>
</mxfile>
